<mxfile host="app.diagrams.net" agent="Mozilla/5.0 (Windows NT 10.0; Win64; x64) AppleWebKit/537.36 (KHTML, like Gecko) Chrome/133.0.0.0 Safari/537.36" version="26.0.16" pages="2">
  <diagram id="C5RBs43oDa-KdzZeNtuy" name="MER">
    <mxGraphModel dx="1326" dy="550" grid="0" gridSize="10" guides="1" tooltips="1" connect="1" arrows="1" fold="1" page="1" pageScale="1" pageWidth="827" pageHeight="1169" math="0" shadow="0" adaptiveColors="none">
      <root>
        <mxCell id="WIyWlLk6GJQsqaUBKTNV-0" />
        <mxCell id="WIyWlLk6GJQsqaUBKTNV-1" parent="WIyWlLk6GJQsqaUBKTNV-0" />
        <mxCell id="WIyWlLk6GJQsqaUBKTNV-3" value="&lt;b&gt;Cliente&lt;/b&gt;" style="rounded=1;whiteSpace=wrap;html=1;fontSize=12;glass=0;strokeWidth=1;shadow=0;labelBackgroundColor=none;fillColor=#FAE5C7;strokeColor=#0F8B8D;fontColor=#143642;" parent="WIyWlLk6GJQsqaUBKTNV-1" vertex="1">
          <mxGeometry x="160" y="30" width="90" height="40" as="geometry" />
        </mxCell>
        <mxCell id="WIyWlLk6GJQsqaUBKTNV-6" value="Realiza" style="rhombus;whiteSpace=wrap;html=1;shadow=0;fontFamily=Helvetica;fontSize=12;align=center;strokeWidth=1;spacing=6;spacingTop=-4;labelBackgroundColor=none;rounded=1;fillColor=#FAE5C7;strokeColor=#0F8B8D;fontColor=#143642;" parent="WIyWlLk6GJQsqaUBKTNV-1" vertex="1">
          <mxGeometry x="175" y="140" width="60" height="50" as="geometry" />
        </mxCell>
        <mxCell id="WIyWlLk6GJQsqaUBKTNV-7" value="&lt;b&gt;Conta&lt;/b&gt;" style="rounded=1;whiteSpace=wrap;html=1;fontSize=12;glass=0;strokeWidth=1;shadow=0;labelBackgroundColor=none;fillColor=#FAE5C7;strokeColor=#0F8B8D;fontColor=#143642;" parent="WIyWlLk6GJQsqaUBKTNV-1" vertex="1">
          <mxGeometry x="560" y="30" width="120" height="40" as="geometry" />
        </mxCell>
        <mxCell id="WIyWlLk6GJQsqaUBKTNV-11" value="&lt;b&gt;Compra&lt;/b&gt;" style="rounded=1;whiteSpace=wrap;html=1;fontSize=12;glass=0;strokeWidth=1;shadow=0;labelBackgroundColor=none;fillColor=#FAE5C7;strokeColor=#0F8B8D;fontColor=#143642;" parent="WIyWlLk6GJQsqaUBKTNV-1" vertex="1">
          <mxGeometry x="160" y="270" width="90" height="40" as="geometry" />
        </mxCell>
        <mxCell id="1apUicz2O2C1YQh9-yx--0" value="" style="endArrow=none;html=1;rounded=1;entryX=0.5;entryY=1;entryDx=0;entryDy=0;exitX=0.5;exitY=0;exitDx=0;exitDy=0;labelBackgroundColor=none;fontColor=default;strokeColor=#A8201A;" edge="1" parent="WIyWlLk6GJQsqaUBKTNV-1" source="WIyWlLk6GJQsqaUBKTNV-6" target="WIyWlLk6GJQsqaUBKTNV-3">
          <mxGeometry width="50" height="50" relative="1" as="geometry">
            <mxPoint x="220" y="170" as="sourcePoint" />
            <mxPoint x="270" y="120" as="targetPoint" />
          </mxGeometry>
        </mxCell>
        <mxCell id="1apUicz2O2C1YQh9-yx--2" value="&lt;u&gt;&lt;b&gt;cpf&lt;/b&gt;&lt;/u&gt;" style="ellipse;whiteSpace=wrap;html=1;labelBackgroundColor=none;rounded=1;fillColor=#FAE5C7;strokeColor=#0F8B8D;fontColor=#143642;" vertex="1" parent="WIyWlLk6GJQsqaUBKTNV-1">
          <mxGeometry x="10" y="20" width="100" height="30" as="geometry" />
        </mxCell>
        <mxCell id="1apUicz2O2C1YQh9-yx--3" value="nome" style="ellipse;whiteSpace=wrap;html=1;labelBackgroundColor=none;rounded=1;fillColor=#FAE5C7;strokeColor=#0F8B8D;fontColor=#143642;" vertex="1" parent="WIyWlLk6GJQsqaUBKTNV-1">
          <mxGeometry x="10" y="70" width="100" height="30" as="geometry" />
        </mxCell>
        <mxCell id="1apUicz2O2C1YQh9-yx--4" value="telefone" style="ellipse;whiteSpace=wrap;html=1;labelBackgroundColor=none;rounded=1;fillColor=#FAE5C7;strokeColor=#0F8B8D;fontColor=#143642;" vertex="1" parent="WIyWlLk6GJQsqaUBKTNV-1">
          <mxGeometry x="10" y="110" width="100" height="30" as="geometry" />
        </mxCell>
        <mxCell id="1apUicz2O2C1YQh9-yx--5" value="endereco" style="ellipse;whiteSpace=wrap;html=1;labelBackgroundColor=none;rounded=1;fillColor=#FAE5C7;strokeColor=#0F8B8D;fontColor=#143642;" vertex="1" parent="WIyWlLk6GJQsqaUBKTNV-1">
          <mxGeometry x="10" y="150" width="100" height="30" as="geometry" />
        </mxCell>
        <mxCell id="1apUicz2O2C1YQh9-yx--6" value="" style="endArrow=none;html=1;rounded=1;exitX=0;exitY=0.25;exitDx=0;exitDy=0;entryX=1;entryY=0.5;entryDx=0;entryDy=0;labelBackgroundColor=none;fontColor=default;strokeColor=#A8201A;" edge="1" parent="WIyWlLk6GJQsqaUBKTNV-1" source="WIyWlLk6GJQsqaUBKTNV-3" target="1apUicz2O2C1YQh9-yx--2">
          <mxGeometry width="50" height="50" relative="1" as="geometry">
            <mxPoint x="200" y="70" as="sourcePoint" />
            <mxPoint x="90" y="25" as="targetPoint" />
          </mxGeometry>
        </mxCell>
        <mxCell id="1apUicz2O2C1YQh9-yx--7" value="" style="endArrow=none;html=1;rounded=1;exitX=1;exitY=0.5;exitDx=0;exitDy=0;entryX=0;entryY=0.5;entryDx=0;entryDy=0;labelBackgroundColor=none;fontColor=default;strokeColor=#A8201A;" edge="1" parent="WIyWlLk6GJQsqaUBKTNV-1" source="1apUicz2O2C1YQh9-yx--3" target="WIyWlLk6GJQsqaUBKTNV-3">
          <mxGeometry width="50" height="50" relative="1" as="geometry">
            <mxPoint x="390" y="70" as="sourcePoint" />
            <mxPoint x="150" y="140" as="targetPoint" />
          </mxGeometry>
        </mxCell>
        <mxCell id="1apUicz2O2C1YQh9-yx--8" value="" style="endArrow=none;html=1;rounded=1;exitX=1;exitY=0.5;exitDx=0;exitDy=0;entryX=0;entryY=0.75;entryDx=0;entryDy=0;labelBackgroundColor=none;fontColor=default;strokeColor=#A8201A;" edge="1" parent="WIyWlLk6GJQsqaUBKTNV-1" source="1apUicz2O2C1YQh9-yx--4" target="WIyWlLk6GJQsqaUBKTNV-3">
          <mxGeometry width="50" height="50" relative="1" as="geometry">
            <mxPoint x="390" y="70" as="sourcePoint" />
            <mxPoint x="170" y="100" as="targetPoint" />
          </mxGeometry>
        </mxCell>
        <mxCell id="1apUicz2O2C1YQh9-yx--10" value="" style="endArrow=none;html=1;rounded=1;entryX=0;entryY=1;entryDx=0;entryDy=0;exitX=1;exitY=0.5;exitDx=0;exitDy=0;labelBackgroundColor=none;fontColor=default;strokeColor=#A8201A;" edge="1" parent="WIyWlLk6GJQsqaUBKTNV-1" source="1apUicz2O2C1YQh9-yx--5" target="WIyWlLk6GJQsqaUBKTNV-3">
          <mxGeometry width="50" height="50" relative="1" as="geometry">
            <mxPoint x="100" y="170" as="sourcePoint" />
            <mxPoint x="150" y="120" as="targetPoint" />
          </mxGeometry>
        </mxCell>
        <mxCell id="1apUicz2O2C1YQh9-yx--14" value="" style="endArrow=none;html=1;rounded=1;entryX=0.5;entryY=1;entryDx=0;entryDy=0;exitX=0.5;exitY=0;exitDx=0;exitDy=0;labelBackgroundColor=none;fontColor=default;strokeColor=#A8201A;" edge="1" parent="WIyWlLk6GJQsqaUBKTNV-1" source="WIyWlLk6GJQsqaUBKTNV-11" target="WIyWlLk6GJQsqaUBKTNV-6">
          <mxGeometry width="50" height="50" relative="1" as="geometry">
            <mxPoint x="220" y="280" as="sourcePoint" />
            <mxPoint x="245" y="230" as="targetPoint" />
          </mxGeometry>
        </mxCell>
        <mxCell id="1apUicz2O2C1YQh9-yx--16" value="" style="endArrow=none;html=1;rounded=1;entryX=0.5;entryY=1;entryDx=0;entryDy=0;exitX=0.5;exitY=0;exitDx=0;exitDy=0;labelBackgroundColor=none;fontColor=default;strokeColor=#A8201A;" edge="1" parent="WIyWlLk6GJQsqaUBKTNV-1" source="1apUicz2O2C1YQh9-yx--15" target="WIyWlLk6GJQsqaUBKTNV-11">
          <mxGeometry width="50" height="50" relative="1" as="geometry">
            <mxPoint x="219.91" y="464.20000000000016" as="sourcePoint" />
            <mxPoint x="219.41" y="374.2" as="targetPoint" />
          </mxGeometry>
        </mxCell>
        <mxCell id="1apUicz2O2C1YQh9-yx--17" value="&lt;u&gt;&lt;b&gt;id&lt;/b&gt;&lt;/u&gt;" style="ellipse;whiteSpace=wrap;html=1;labelBackgroundColor=none;rounded=1;fillColor=#FAE5C7;strokeColor=#0F8B8D;fontColor=#143642;" vertex="1" parent="WIyWlLk6GJQsqaUBKTNV-1">
          <mxGeometry x="10" y="240" width="100" height="30" as="geometry" />
        </mxCell>
        <mxCell id="1apUicz2O2C1YQh9-yx--18" value="data" style="ellipse;whiteSpace=wrap;html=1;labelBackgroundColor=none;rounded=1;fillColor=#FAE5C7;strokeColor=#0F8B8D;fontColor=#143642;" vertex="1" parent="WIyWlLk6GJQsqaUBKTNV-1">
          <mxGeometry x="10" y="290" width="100" height="30" as="geometry" />
        </mxCell>
        <mxCell id="1apUicz2O2C1YQh9-yx--19" value="valor total" style="ellipse;whiteSpace=wrap;html=1;labelBackgroundColor=none;rounded=1;fillColor=#FAE5C7;strokeColor=#0F8B8D;fontColor=#143642;" vertex="1" parent="WIyWlLk6GJQsqaUBKTNV-1">
          <mxGeometry x="10" y="330" width="100" height="30" as="geometry" />
        </mxCell>
        <mxCell id="1apUicz2O2C1YQh9-yx--20" value="" style="endArrow=none;html=1;rounded=1;entryX=0;entryY=1;entryDx=0;entryDy=0;exitX=1;exitY=0.5;exitDx=0;exitDy=0;labelBackgroundColor=none;fontColor=default;strokeColor=#A8201A;" edge="1" parent="WIyWlLk6GJQsqaUBKTNV-1" source="1apUicz2O2C1YQh9-yx--19" target="WIyWlLk6GJQsqaUBKTNV-11">
          <mxGeometry width="50" height="50" relative="1" as="geometry">
            <mxPoint x="110" y="400" as="sourcePoint" />
            <mxPoint x="160" y="350" as="targetPoint" />
          </mxGeometry>
        </mxCell>
        <mxCell id="1apUicz2O2C1YQh9-yx--24" value="" style="endArrow=none;html=1;rounded=1;exitX=1;exitY=0.5;exitDx=0;exitDy=0;entryX=0;entryY=0.75;entryDx=0;entryDy=0;labelBackgroundColor=none;fontColor=default;strokeColor=#A8201A;" edge="1" parent="WIyWlLk6GJQsqaUBKTNV-1" source="1apUicz2O2C1YQh9-yx--18" target="WIyWlLk6GJQsqaUBKTNV-11">
          <mxGeometry width="50" height="50" relative="1" as="geometry">
            <mxPoint x="120" y="300" as="sourcePoint" />
            <mxPoint x="170" y="250" as="targetPoint" />
          </mxGeometry>
        </mxCell>
        <mxCell id="1apUicz2O2C1YQh9-yx--25" value="" style="endArrow=none;html=1;rounded=1;entryX=0;entryY=0;entryDx=0;entryDy=0;exitX=1;exitY=0.5;exitDx=0;exitDy=0;labelBackgroundColor=none;fontColor=default;strokeColor=#A8201A;" edge="1" parent="WIyWlLk6GJQsqaUBKTNV-1" source="1apUicz2O2C1YQh9-yx--17" target="WIyWlLk6GJQsqaUBKTNV-11">
          <mxGeometry width="50" height="50" relative="1" as="geometry">
            <mxPoint x="110" y="260" as="sourcePoint" />
            <mxPoint x="160" y="210" as="targetPoint" />
          </mxGeometry>
        </mxCell>
        <mxCell id="1apUicz2O2C1YQh9-yx--26" value="id compra" style="ellipse;whiteSpace=wrap;html=1;labelBackgroundColor=none;rounded=1;fillColor=#FAE5C7;strokeColor=#0F8B8D;fontColor=#143642;" vertex="1" parent="WIyWlLk6GJQsqaUBKTNV-1">
          <mxGeometry x="10" y="410" width="100" height="30" as="geometry" />
        </mxCell>
        <mxCell id="1apUicz2O2C1YQh9-yx--27" value="id produto" style="ellipse;whiteSpace=wrap;html=1;labelBackgroundColor=none;rounded=1;fillColor=#FAE5C7;strokeColor=#0F8B8D;fontColor=#143642;" vertex="1" parent="WIyWlLk6GJQsqaUBKTNV-1">
          <mxGeometry x="10" y="450" width="100" height="30" as="geometry" />
        </mxCell>
        <mxCell id="1apUicz2O2C1YQh9-yx--28" value="" style="endArrow=none;html=1;rounded=1;entryX=0;entryY=0.75;entryDx=0;entryDy=0;exitX=1;exitY=0.5;exitDx=0;exitDy=0;labelBackgroundColor=none;fontColor=default;strokeColor=#A8201A;" edge="1" parent="WIyWlLk6GJQsqaUBKTNV-1" source="1apUicz2O2C1YQh9-yx--27" target="1apUicz2O2C1YQh9-yx--15">
          <mxGeometry width="50" height="50" relative="1" as="geometry">
            <mxPoint x="110" y="520" as="sourcePoint" />
            <mxPoint x="160" y="450" as="targetPoint" />
          </mxGeometry>
        </mxCell>
        <mxCell id="1apUicz2O2C1YQh9-yx--29" value="" style="endArrow=none;html=1;rounded=1;exitX=1;exitY=0.5;exitDx=0;exitDy=0;entryX=0;entryY=0.25;entryDx=0;entryDy=0;labelBackgroundColor=none;fontColor=default;strokeColor=#A8201A;" edge="1" parent="WIyWlLk6GJQsqaUBKTNV-1" source="1apUicz2O2C1YQh9-yx--26" target="1apUicz2O2C1YQh9-yx--15">
          <mxGeometry width="50" height="50" relative="1" as="geometry">
            <mxPoint x="120" y="420" as="sourcePoint" />
            <mxPoint x="160" y="440" as="targetPoint" />
          </mxGeometry>
        </mxCell>
        <mxCell id="1apUicz2O2C1YQh9-yx--30" value="Possui" style="rhombus;whiteSpace=wrap;html=1;shadow=0;fontFamily=Helvetica;fontSize=12;align=center;strokeWidth=1;spacing=6;spacingTop=-4;labelBackgroundColor=none;rounded=1;fillColor=#FAE5C7;strokeColor=#0F8B8D;fontColor=#143642;" vertex="1" parent="WIyWlLk6GJQsqaUBKTNV-1">
          <mxGeometry x="370" y="25" width="60" height="50" as="geometry" />
        </mxCell>
        <mxCell id="1apUicz2O2C1YQh9-yx--31" value="" style="endArrow=none;html=1;rounded=1;entryX=1;entryY=0.5;entryDx=0;entryDy=0;exitX=0;exitY=0.5;exitDx=0;exitDy=0;labelBackgroundColor=none;fontColor=default;strokeColor=#A8201A;" edge="1" parent="WIyWlLk6GJQsqaUBKTNV-1" source="1apUicz2O2C1YQh9-yx--30" target="WIyWlLk6GJQsqaUBKTNV-3">
          <mxGeometry width="50" height="50" relative="1" as="geometry">
            <mxPoint x="410" y="60" as="sourcePoint" />
            <mxPoint x="300" y="100" as="targetPoint" />
          </mxGeometry>
        </mxCell>
        <mxCell id="1apUicz2O2C1YQh9-yx--32" value="" style="endArrow=none;html=1;rounded=1;exitX=0;exitY=0.5;exitDx=0;exitDy=0;labelBackgroundColor=none;fontColor=default;strokeColor=#A8201A;" edge="1" parent="WIyWlLk6GJQsqaUBKTNV-1" target="1apUicz2O2C1YQh9-yx--30" source="WIyWlLk6GJQsqaUBKTNV-7">
          <mxGeometry width="50" height="50" relative="1" as="geometry">
            <mxPoint x="410" y="180" as="sourcePoint" />
            <mxPoint x="435" y="120" as="targetPoint" />
          </mxGeometry>
        </mxCell>
        <mxCell id="1apUicz2O2C1YQh9-yx--34" value="&lt;b&gt;Corente&lt;/b&gt;" style="rounded=1;whiteSpace=wrap;html=1;fontSize=12;glass=0;strokeWidth=1;shadow=0;labelBackgroundColor=none;fillColor=#FAE5C7;strokeColor=#0F8B8D;fontColor=#143642;" vertex="1" parent="WIyWlLk6GJQsqaUBKTNV-1">
          <mxGeometry x="470" y="175.8" width="80" height="40" as="geometry" />
        </mxCell>
        <mxCell id="1apUicz2O2C1YQh9-yx--37" value="data abertura" style="ellipse;whiteSpace=wrap;html=1;labelBackgroundColor=none;rounded=1;fillColor=#FAE5C7;strokeColor=#0F8B8D;fontColor=#143642;" vertex="1" parent="WIyWlLk6GJQsqaUBKTNV-1">
          <mxGeometry x="380" y="218" width="100" height="30" as="geometry" />
        </mxCell>
        <mxCell id="1apUicz2O2C1YQh9-yx--41" value="&lt;b&gt;Poupança&lt;/b&gt;" style="rounded=1;whiteSpace=wrap;html=1;fontSize=12;glass=0;strokeWidth=1;shadow=0;labelBackgroundColor=none;fillColor=#FAE5C7;strokeColor=#0F8B8D;fontColor=#143642;" vertex="1" parent="WIyWlLk6GJQsqaUBKTNV-1">
          <mxGeometry x="660" y="175.8" width="80" height="40" as="geometry" />
        </mxCell>
        <mxCell id="1apUicz2O2C1YQh9-yx--42" value="valor rendimento" style="ellipse;whiteSpace=wrap;html=1;labelBackgroundColor=none;rounded=1;fillColor=#FAE5C7;strokeColor=#0F8B8D;fontColor=#143642;" vertex="1" parent="WIyWlLk6GJQsqaUBKTNV-1">
          <mxGeometry x="724.27" y="260" width="100" height="30" as="geometry" />
        </mxCell>
        <mxCell id="1apUicz2O2C1YQh9-yx--43" value="dia aniversario" style="ellipse;whiteSpace=wrap;html=1;labelBackgroundColor=none;rounded=1;fillColor=#FAE5C7;strokeColor=#0F8B8D;fontColor=#143642;" vertex="1" parent="WIyWlLk6GJQsqaUBKTNV-1">
          <mxGeometry x="605" y="250" width="100" height="30" as="geometry" />
        </mxCell>
        <mxCell id="1apUicz2O2C1YQh9-yx--44" value="" style="endArrow=none;html=1;rounded=1;entryX=0.142;entryY=0.95;entryDx=0;entryDy=0;exitX=0.5;exitY=0;exitDx=0;exitDy=0;entryPerimeter=0;labelBackgroundColor=none;fontColor=default;strokeColor=#A8201A;" edge="1" parent="WIyWlLk6GJQsqaUBKTNV-1" source="1apUicz2O2C1YQh9-yx--43" target="1apUicz2O2C1YQh9-yx--41">
          <mxGeometry width="50" height="50" relative="1" as="geometry">
            <mxPoint x="707" y="375.8" as="sourcePoint" />
            <mxPoint x="757" y="325.8" as="targetPoint" />
          </mxGeometry>
        </mxCell>
        <mxCell id="1apUicz2O2C1YQh9-yx--45" value="" style="endArrow=none;html=1;rounded=1;exitX=0;exitY=0;exitDx=0;exitDy=0;entryX=0.425;entryY=1.025;entryDx=0;entryDy=0;entryPerimeter=0;labelBackgroundColor=none;fontColor=default;strokeColor=#A8201A;" edge="1" parent="WIyWlLk6GJQsqaUBKTNV-1" source="1apUicz2O2C1YQh9-yx--42" target="1apUicz2O2C1YQh9-yx--41">
          <mxGeometry width="50" height="50" relative="1" as="geometry">
            <mxPoint x="717" y="275.8" as="sourcePoint" />
            <mxPoint x="767" y="225.8" as="targetPoint" />
            <Array as="points" />
          </mxGeometry>
        </mxCell>
        <mxCell id="1apUicz2O2C1YQh9-yx--47" value="" style="endArrow=none;html=1;rounded=1;entryX=0;entryY=0.5;entryDx=0;entryDy=0;labelBackgroundColor=none;fontColor=default;strokeColor=#A8201A;" edge="1" parent="WIyWlLk6GJQsqaUBKTNV-1" source="1apUicz2O2C1YQh9-yx--37" target="1apUicz2O2C1YQh9-yx--34">
          <mxGeometry width="50" height="50" relative="1" as="geometry">
            <mxPoint x="370" y="205.8" as="sourcePoint" />
            <mxPoint x="420" y="155.8" as="targetPoint" />
          </mxGeometry>
        </mxCell>
        <mxCell id="1apUicz2O2C1YQh9-yx--48" value="" style="strokeWidth=2;html=1;shape=mxgraph.flowchart.annotation_2;align=left;labelPosition=right;pointerEvents=1;rotation=90;labelBackgroundColor=none;rounded=1;fillColor=#FAE5C7;strokeColor=#0F8B8D;fontColor=#143642;" vertex="1" parent="WIyWlLk6GJQsqaUBKTNV-1">
          <mxGeometry x="574.27" y="25" width="103.22" height="195.65" as="geometry" />
        </mxCell>
        <mxCell id="1apUicz2O2C1YQh9-yx--56" value="&lt;b&gt;Produto&lt;/b&gt;" style="rounded=1;whiteSpace=wrap;html=1;fontSize=12;glass=0;strokeWidth=1;shadow=0;labelBackgroundColor=none;fillColor=#FAE5C7;strokeColor=#0F8B8D;fontColor=#143642;" vertex="1" parent="WIyWlLk6GJQsqaUBKTNV-1">
          <mxGeometry x="460" y="270" width="85" height="40" as="geometry" />
        </mxCell>
        <mxCell id="1apUicz2O2C1YQh9-yx--58" value="&lt;b&gt;&lt;u&gt;id produto&lt;/u&gt;&lt;/b&gt;" style="ellipse;whiteSpace=wrap;html=1;labelBackgroundColor=none;rounded=1;fillColor=#FAE5C7;strokeColor=#0F8B8D;fontColor=#143642;" vertex="1" parent="WIyWlLk6GJQsqaUBKTNV-1">
          <mxGeometry x="360" y="370" width="90" height="30" as="geometry" />
        </mxCell>
        <mxCell id="1apUicz2O2C1YQh9-yx--59" value="nome" style="ellipse;whiteSpace=wrap;html=1;labelBackgroundColor=none;rounded=1;fillColor=#FAE5C7;strokeColor=#0F8B8D;fontColor=#143642;" vertex="1" parent="WIyWlLk6GJQsqaUBKTNV-1">
          <mxGeometry x="450" y="405" width="70" height="30" as="geometry" />
        </mxCell>
        <mxCell id="1apUicz2O2C1YQh9-yx--65" value="" style="endArrow=none;html=1;rounded=1;entryX=1;entryY=0.5;entryDx=0;entryDy=0;exitX=0;exitY=0.5;exitDx=0;exitDy=0;labelBackgroundColor=none;fontColor=default;strokeColor=#A8201A;" edge="1" parent="WIyWlLk6GJQsqaUBKTNV-1" source="1apUicz2O2C1YQh9-yx--76" target="WIyWlLk6GJQsqaUBKTNV-11">
          <mxGeometry width="50" height="50" relative="1" as="geometry">
            <mxPoint x="325" y="364.2" as="sourcePoint" />
            <mxPoint x="325" y="384.2" as="targetPoint" />
          </mxGeometry>
        </mxCell>
        <mxCell id="1apUicz2O2C1YQh9-yx--66" value="preço" style="ellipse;whiteSpace=wrap;html=1;labelBackgroundColor=none;rounded=1;fillColor=#FAE5C7;strokeColor=#0F8B8D;fontColor=#143642;" vertex="1" parent="WIyWlLk6GJQsqaUBKTNV-1">
          <mxGeometry x="497" y="360.00000000000006" width="60" height="30" as="geometry" />
        </mxCell>
        <mxCell id="1apUicz2O2C1YQh9-yx--67" value="qtd estoque" style="ellipse;whiteSpace=wrap;html=1;labelBackgroundColor=none;rounded=1;fillColor=#FAE5C7;strokeColor=#0F8B8D;fontColor=#143642;" vertex="1" parent="WIyWlLk6GJQsqaUBKTNV-1">
          <mxGeometry x="561" y="398" width="100" height="30" as="geometry" />
        </mxCell>
        <mxCell id="1apUicz2O2C1YQh9-yx--69" value="" style="endArrow=none;html=1;rounded=1;entryX=0.25;entryY=1;entryDx=0;entryDy=0;exitX=0.5;exitY=0;exitDx=0;exitDy=0;labelBackgroundColor=none;fontColor=default;strokeColor=#A8201A;" edge="1" parent="WIyWlLk6GJQsqaUBKTNV-1" source="1apUicz2O2C1YQh9-yx--58" target="1apUicz2O2C1YQh9-yx--56">
          <mxGeometry width="50" height="50" relative="1" as="geometry">
            <mxPoint x="395" y="454.2" as="sourcePoint" />
            <mxPoint x="345" y="444.2" as="targetPoint" />
          </mxGeometry>
        </mxCell>
        <mxCell id="1apUicz2O2C1YQh9-yx--70" value="" style="endArrow=none;html=1;rounded=1;exitX=0.433;exitY=1.004;exitDx=0;exitDy=0;exitPerimeter=0;labelBackgroundColor=none;fontColor=default;strokeColor=#A8201A;" edge="1" parent="WIyWlLk6GJQsqaUBKTNV-1" source="1apUicz2O2C1YQh9-yx--56" target="1apUicz2O2C1YQh9-yx--59">
          <mxGeometry width="50" height="50" relative="1" as="geometry">
            <mxPoint x="345" y="414.2" as="sourcePoint" />
            <mxPoint x="295" y="374.2" as="targetPoint" />
          </mxGeometry>
        </mxCell>
        <mxCell id="1apUicz2O2C1YQh9-yx--71" value="" style="endArrow=none;html=1;rounded=1;entryX=0.75;entryY=1;entryDx=0;entryDy=0;exitX=0.5;exitY=0;exitDx=0;exitDy=0;labelBackgroundColor=none;fontColor=default;strokeColor=#A8201A;" edge="1" parent="WIyWlLk6GJQsqaUBKTNV-1" source="1apUicz2O2C1YQh9-yx--66" target="1apUicz2O2C1YQh9-yx--56">
          <mxGeometry width="50" height="50" relative="1" as="geometry">
            <mxPoint x="355" y="394.2" as="sourcePoint" />
            <mxPoint x="305" y="384.2" as="targetPoint" />
          </mxGeometry>
        </mxCell>
        <mxCell id="1apUicz2O2C1YQh9-yx--75" value="" style="endArrow=none;html=1;rounded=1;entryX=0;entryY=0;entryDx=0;entryDy=0;exitX=0.933;exitY=0.975;exitDx=0;exitDy=0;exitPerimeter=0;labelBackgroundColor=none;fontColor=default;strokeColor=#A8201A;" edge="1" parent="WIyWlLk6GJQsqaUBKTNV-1" source="1apUicz2O2C1YQh9-yx--56" target="1apUicz2O2C1YQh9-yx--67">
          <mxGeometry width="50" height="50" relative="1" as="geometry">
            <mxPoint x="365" y="404.2" as="sourcePoint" />
            <mxPoint x="315" y="394.2" as="targetPoint" />
          </mxGeometry>
        </mxCell>
        <mxCell id="1apUicz2O2C1YQh9-yx--76" value="Inclui" style="rhombus;whiteSpace=wrap;html=1;shadow=0;fontFamily=Helvetica;fontSize=12;align=center;strokeWidth=1;spacing=6;spacingTop=-4;labelBackgroundColor=none;rounded=1;fillColor=#FAE5C7;strokeColor=#0F8B8D;fontColor=#143642;" vertex="1" parent="WIyWlLk6GJQsqaUBKTNV-1">
          <mxGeometry x="340" y="265" width="60" height="50" as="geometry" />
        </mxCell>
        <mxCell id="1apUicz2O2C1YQh9-yx--78" value="" style="endArrow=none;html=1;rounded=1;entryX=1;entryY=0.5;entryDx=0;entryDy=0;exitX=0;exitY=0.5;exitDx=0;exitDy=0;labelBackgroundColor=none;fontColor=default;strokeColor=#A8201A;" edge="1" parent="WIyWlLk6GJQsqaUBKTNV-1" source="1apUicz2O2C1YQh9-yx--56" target="1apUicz2O2C1YQh9-yx--76">
          <mxGeometry width="50" height="50" relative="1" as="geometry">
            <mxPoint x="385" y="435.2" as="sourcePoint" />
            <mxPoint x="335" y="424.2" as="targetPoint" />
          </mxGeometry>
        </mxCell>
        <mxCell id="1apUicz2O2C1YQh9-yx--80" value="&lt;b&gt;Parceiro&lt;/b&gt;" style="rounded=1;whiteSpace=wrap;html=1;fontSize=12;glass=0;strokeWidth=1;shadow=0;labelBackgroundColor=none;fillColor=#FAE5C7;strokeColor=#0F8B8D;fontColor=#143642;" vertex="1" parent="WIyWlLk6GJQsqaUBKTNV-1">
          <mxGeometry x="750" y="345" width="120" height="40" as="geometry" />
        </mxCell>
        <mxCell id="1apUicz2O2C1YQh9-yx--81" value="&lt;b&gt;&lt;u&gt;Cnpj&lt;/u&gt;&lt;/b&gt;" style="ellipse;whiteSpace=wrap;html=1;labelBackgroundColor=none;rounded=1;fillColor=#FAE5C7;strokeColor=#0F8B8D;fontColor=#143642;" vertex="1" parent="WIyWlLk6GJQsqaUBKTNV-1">
          <mxGeometry x="705" y="410" width="70" height="30" as="geometry" />
        </mxCell>
        <mxCell id="1apUicz2O2C1YQh9-yx--82" value="endereço" style="ellipse;whiteSpace=wrap;html=1;labelBackgroundColor=none;rounded=1;fillColor=#FAE5C7;strokeColor=#0F8B8D;fontColor=#143642;" vertex="1" parent="WIyWlLk6GJQsqaUBKTNV-1">
          <mxGeometry x="744.27" y="470.00000000000006" width="60" height="30" as="geometry" />
        </mxCell>
        <mxCell id="1apUicz2O2C1YQh9-yx--83" value="nome fantasia" style="ellipse;whiteSpace=wrap;html=1;labelBackgroundColor=none;rounded=1;fillColor=#FAE5C7;strokeColor=#0F8B8D;fontColor=#143642;" vertex="1" parent="WIyWlLk6GJQsqaUBKTNV-1">
          <mxGeometry x="860" y="460" width="100" height="30" as="geometry" />
        </mxCell>
        <mxCell id="1apUicz2O2C1YQh9-yx--84" value="" style="endArrow=none;html=1;rounded=1;exitX=0.433;exitY=1.004;exitDx=0;exitDy=0;exitPerimeter=0;labelBackgroundColor=none;fontColor=default;strokeColor=#A8201A;" edge="1" parent="WIyWlLk6GJQsqaUBKTNV-1" source="1apUicz2O2C1YQh9-yx--80" target="1apUicz2O2C1YQh9-yx--81">
          <mxGeometry width="50" height="50" relative="1" as="geometry">
            <mxPoint x="660" y="414.2" as="sourcePoint" />
            <mxPoint x="610" y="374.2" as="targetPoint" />
          </mxGeometry>
        </mxCell>
        <mxCell id="1apUicz2O2C1YQh9-yx--85" value="" style="endArrow=none;html=1;rounded=1;entryX=0.75;entryY=1;entryDx=0;entryDy=0;exitX=0.5;exitY=0;exitDx=0;exitDy=0;labelBackgroundColor=none;fontColor=default;strokeColor=#A8201A;" edge="1" parent="WIyWlLk6GJQsqaUBKTNV-1" source="1apUicz2O2C1YQh9-yx--82" target="1apUicz2O2C1YQh9-yx--80">
          <mxGeometry width="50" height="50" relative="1" as="geometry">
            <mxPoint x="670" y="394.2" as="sourcePoint" />
            <mxPoint x="620" y="384.2" as="targetPoint" />
          </mxGeometry>
        </mxCell>
        <mxCell id="1apUicz2O2C1YQh9-yx--86" value="" style="endArrow=none;html=1;rounded=1;entryX=0;entryY=0;entryDx=0;entryDy=0;exitX=0.933;exitY=0.975;exitDx=0;exitDy=0;exitPerimeter=0;labelBackgroundColor=none;fontColor=default;strokeColor=#A8201A;" edge="1" parent="WIyWlLk6GJQsqaUBKTNV-1" source="1apUicz2O2C1YQh9-yx--80" target="1apUicz2O2C1YQh9-yx--83">
          <mxGeometry width="50" height="50" relative="1" as="geometry">
            <mxPoint x="680" y="404.2" as="sourcePoint" />
            <mxPoint x="630" y="394.2" as="targetPoint" />
          </mxGeometry>
        </mxCell>
        <mxCell id="1apUicz2O2C1YQh9-yx--89" value="oferece" style="rhombus;whiteSpace=wrap;html=1;shadow=0;fontFamily=Helvetica;fontSize=12;align=center;strokeWidth=1;spacing=6;spacingTop=-4;labelBackgroundColor=none;rounded=1;fillColor=#FAE5C7;strokeColor=#0F8B8D;fontColor=#143642;" vertex="1" parent="WIyWlLk6GJQsqaUBKTNV-1">
          <mxGeometry x="645" y="340" width="60" height="50" as="geometry" />
        </mxCell>
        <mxCell id="1apUicz2O2C1YQh9-yx--90" value="" style="endArrow=none;html=1;rounded=1;entryX=1;entryY=0.5;entryDx=0;entryDy=0;labelBackgroundColor=none;fontColor=default;strokeColor=#A8201A;" edge="1" parent="WIyWlLk6GJQsqaUBKTNV-1" target="1apUicz2O2C1YQh9-yx--89" source="1apUicz2O2C1YQh9-yx--80">
          <mxGeometry width="50" height="50" relative="1" as="geometry">
            <mxPoint x="740" y="370" as="sourcePoint" />
            <mxPoint x="655" y="424.2" as="targetPoint" />
          </mxGeometry>
        </mxCell>
        <mxCell id="1apUicz2O2C1YQh9-yx--91" value="" style="endArrow=none;html=1;rounded=1;exitX=0;exitY=0.5;exitDx=0;exitDy=0;entryX=1;entryY=0.5;entryDx=0;entryDy=0;labelBackgroundColor=none;fontColor=default;strokeColor=#A8201A;" edge="1" parent="WIyWlLk6GJQsqaUBKTNV-1" source="1apUicz2O2C1YQh9-yx--89" target="1apUicz2O2C1YQh9-yx--56">
          <mxGeometry width="50" height="50" relative="1" as="geometry">
            <mxPoint x="610" y="364.41" as="sourcePoint" />
            <mxPoint x="565" y="364.41" as="targetPoint" />
            <Array as="points" />
          </mxGeometry>
        </mxCell>
        <mxCell id="1apUicz2O2C1YQh9-yx--92" value="telefone" style="ellipse;whiteSpace=wrap;html=1;labelBackgroundColor=none;rounded=1;fillColor=#FAE5C7;strokeColor=#0F8B8D;fontColor=#143642;" vertex="1" parent="WIyWlLk6GJQsqaUBKTNV-1">
          <mxGeometry x="900" y="410" width="100" height="30" as="geometry" />
        </mxCell>
        <mxCell id="1apUicz2O2C1YQh9-yx--93" value="" style="endArrow=none;html=1;rounded=1;entryX=0;entryY=0;entryDx=0;entryDy=0;exitX=1;exitY=0.5;exitDx=0;exitDy=0;labelBackgroundColor=none;fontColor=default;strokeColor=#A8201A;" edge="1" parent="WIyWlLk6GJQsqaUBKTNV-1" source="1apUicz2O2C1YQh9-yx--80" target="1apUicz2O2C1YQh9-yx--92">
          <mxGeometry width="50" height="50" relative="1" as="geometry">
            <mxPoint x="920" y="280" as="sourcePoint" />
            <mxPoint x="959" y="385" as="targetPoint" />
          </mxGeometry>
        </mxCell>
        <mxCell id="1apUicz2O2C1YQh9-yx--94" value="nome responsavel" style="ellipse;whiteSpace=wrap;html=1;labelBackgroundColor=none;rounded=1;fillColor=#FAE5C7;strokeColor=#0F8B8D;fontColor=#143642;" vertex="1" parent="WIyWlLk6GJQsqaUBKTNV-1">
          <mxGeometry x="775" y="506" width="130" height="34" as="geometry" />
        </mxCell>
        <mxCell id="1apUicz2O2C1YQh9-yx--95" value="" style="endArrow=none;html=1;rounded=1;entryX=0.816;entryY=0.938;entryDx=0;entryDy=0;exitX=0.5;exitY=0;exitDx=0;exitDy=0;entryPerimeter=0;labelBackgroundColor=none;fontColor=default;strokeColor=#A8201A;" edge="1" parent="WIyWlLk6GJQsqaUBKTNV-1" source="1apUicz2O2C1YQh9-yx--94">
          <mxGeometry width="50" height="50" relative="1" as="geometry">
            <mxPoint x="870" y="526.48" as="sourcePoint" />
            <mxPoint x="853.9200000000001" y="385.0000000000001" as="targetPoint" />
          </mxGeometry>
        </mxCell>
        <mxCell id="1apUicz2O2C1YQh9-yx--15" value="&lt;b&gt;Item Compra&lt;/b&gt;" style="rounded=1;whiteSpace=wrap;html=1;fontSize=12;glass=0;strokeWidth=1;shadow=0;labelBackgroundColor=none;fillColor=#FAE5C7;strokeColor=#0F8B8D;fontColor=#143642;" vertex="1" parent="WIyWlLk6GJQsqaUBKTNV-1">
          <mxGeometry x="155" y="420" width="95" height="40" as="geometry" />
        </mxCell>
        <mxCell id="1apUicz2O2C1YQh9-yx--101" value="Autoriza" style="rhombus;whiteSpace=wrap;html=1;shadow=0;fontFamily=Helvetica;fontSize=12;align=center;strokeWidth=1;spacing=6;spacingTop=-4;labelBackgroundColor=none;rounded=1;fillColor=#FAE5C7;strokeColor=#0F8B8D;fontColor=#143642;" vertex="1" parent="WIyWlLk6GJQsqaUBKTNV-1">
          <mxGeometry x="320" y="150" width="60" height="50" as="geometry" />
        </mxCell>
        <mxCell id="1apUicz2O2C1YQh9-yx--102" value="" style="endArrow=none;html=1;rounded=1;exitX=1;exitY=0.5;exitDx=0;exitDy=0;entryX=0;entryY=0.75;entryDx=0;entryDy=0;labelBackgroundColor=none;fontColor=default;strokeColor=#A8201A;" edge="1" parent="WIyWlLk6GJQsqaUBKTNV-1">
          <mxGeometry width="50" height="50" relative="1" as="geometry">
            <mxPoint x="381" y="175" as="sourcePoint" />
            <mxPoint x="561" y="60" as="targetPoint" />
          </mxGeometry>
        </mxCell>
        <mxCell id="1apUicz2O2C1YQh9-yx--107" value="( N : 1 )" style="edgeLabel;html=1;align=center;verticalAlign=middle;resizable=0;points=[];labelBackgroundColor=none;rounded=1;fontColor=#143642;" vertex="1" connectable="0" parent="1apUicz2O2C1YQh9-yx--102">
          <mxGeometry x="0.5131" y="2" relative="1" as="geometry">
            <mxPoint x="-30" y="-2" as="offset" />
          </mxGeometry>
        </mxCell>
        <mxCell id="1apUicz2O2C1YQh9-yx--103" value="" style="endArrow=none;html=1;rounded=1;entryX=0;entryY=0.5;entryDx=0;entryDy=0;exitX=0.75;exitY=0;exitDx=0;exitDy=0;labelBackgroundColor=none;fontColor=default;strokeColor=#A8201A;" edge="1" parent="WIyWlLk6GJQsqaUBKTNV-1" target="1apUicz2O2C1YQh9-yx--101" source="WIyWlLk6GJQsqaUBKTNV-11">
          <mxGeometry width="50" height="50" relative="1" as="geometry">
            <mxPoint x="232" y="260" as="sourcePoint" />
            <mxPoint x="399.69" y="220.68" as="targetPoint" />
          </mxGeometry>
        </mxCell>
        <mxCell id="1apUicz2O2C1YQh9-yx--105" value="" style="shape=requiredInterface;html=1;verticalLabelPosition=bottom;rotation=-90;labelBackgroundColor=none;rounded=1;fillColor=#FAE5C7;strokeColor=#0F8B8D;fontColor=#143642;" vertex="1" parent="WIyWlLk6GJQsqaUBKTNV-1">
          <mxGeometry x="522" y="142" width="10" height="18" as="geometry" />
        </mxCell>
        <mxCell id="1apUicz2O2C1YQh9-yx--106" value="" style="shape=requiredInterface;html=1;verticalLabelPosition=bottom;rotation=-90;labelBackgroundColor=none;rounded=1;fillColor=#FAE5C7;strokeColor=#0F8B8D;fontColor=#143642;" vertex="1" parent="WIyWlLk6GJQsqaUBKTNV-1">
          <mxGeometry x="718" y="141" width="10" height="18" as="geometry" />
        </mxCell>
        <mxCell id="1apUicz2O2C1YQh9-yx--108" value="( 1 : 1 )" style="edgeLabel;html=1;align=center;verticalAlign=middle;resizable=0;points=[];labelBackgroundColor=none;rounded=1;fontColor=#143642;" vertex="1" connectable="0" parent="WIyWlLk6GJQsqaUBKTNV-1">
          <mxGeometry x="316.9960303802227" y="232.9989239944916" as="geometry">
            <mxPoint x="-41" y="19" as="offset" />
          </mxGeometry>
        </mxCell>
        <mxCell id="1apUicz2O2C1YQh9-yx--109" value="( 1 : N )" style="edgeLabel;html=1;align=center;verticalAlign=middle;resizable=0;points=[];labelBackgroundColor=none;rounded=1;fontColor=#143642;" vertex="1" connectable="0" parent="WIyWlLk6GJQsqaUBKTNV-1">
          <mxGeometry x="352.9960303802227" y="27.998923994491598" as="geometry">
            <mxPoint x="-80" y="9" as="offset" />
          </mxGeometry>
        </mxCell>
        <mxCell id="1apUicz2O2C1YQh9-yx--110" value="( 1 : 1 )" style="edgeLabel;html=1;align=center;verticalAlign=middle;resizable=0;points=[];labelBackgroundColor=none;rounded=1;fontColor=#143642;" vertex="1" connectable="0" parent="WIyWlLk6GJQsqaUBKTNV-1">
          <mxGeometry x="521.9960303802227" y="64.9989239944916" as="geometry">
            <mxPoint x="6" y="-27" as="offset" />
          </mxGeometry>
        </mxCell>
        <mxCell id="1apUicz2O2C1YQh9-yx--111" value="( 1 : N )" style="edgeLabel;html=1;align=center;verticalAlign=middle;resizable=0;points=[];labelBackgroundColor=none;rounded=1;fontColor=#143642;" vertex="1" connectable="0" parent="WIyWlLk6GJQsqaUBKTNV-1">
          <mxGeometry x="279.9960303802227" y="89.9989239944916" as="geometry">
            <mxPoint x="-101" y="-7" as="offset" />
          </mxGeometry>
        </mxCell>
        <mxCell id="1apUicz2O2C1YQh9-yx--112" value="( 1 : 1 )" style="edgeLabel;html=1;align=center;verticalAlign=middle;resizable=0;points=[];labelBackgroundColor=none;rounded=1;fontColor=#143642;" vertex="1" connectable="0" parent="WIyWlLk6GJQsqaUBKTNV-1">
          <mxGeometry x="245.9960303802227" y="234.99892399449158" as="geometry">
            <mxPoint x="-67" y="13" as="offset" />
          </mxGeometry>
        </mxCell>
        <mxCell id="1apUicz2O2C1YQh9-yx--114" value="( 1 : N )" style="edgeLabel;html=1;align=center;verticalAlign=middle;resizable=0;points=[];labelBackgroundColor=none;rounded=1;fontColor=#143642;" vertex="1" connectable="0" parent="WIyWlLk6GJQsqaUBKTNV-1">
          <mxGeometry x="309.9960303802227" y="289.99892399449163" as="geometry">
            <mxPoint x="-41" y="19" as="offset" />
          </mxGeometry>
        </mxCell>
        <mxCell id="1apUicz2O2C1YQh9-yx--115" value="( N : 1 )" style="edgeLabel;html=1;align=center;verticalAlign=middle;resizable=0;points=[];labelBackgroundColor=none;rounded=1;fontColor=#143642;" vertex="1" connectable="0" parent="WIyWlLk6GJQsqaUBKTNV-1">
          <mxGeometry x="479.9960303802227" y="289.99892399449163" as="geometry">
            <mxPoint x="-41" y="19" as="offset" />
          </mxGeometry>
        </mxCell>
        <mxCell id="1apUicz2O2C1YQh9-yx--116" value="( N : M )" style="edgeLabel;html=1;align=center;verticalAlign=middle;resizable=0;points=[];labelBackgroundColor=none;rounded=1;fontColor=#143642;" vertex="1" connectable="0" parent="WIyWlLk6GJQsqaUBKTNV-1">
          <mxGeometry x="219.9960303802227" y="374.99892399449163" as="geometry">
            <mxPoint x="-41" y="19" as="offset" />
          </mxGeometry>
        </mxCell>
        <mxCell id="1apUicz2O2C1YQh9-yx--117" value="( N : 1 )" style="edgeLabel;html=1;align=center;verticalAlign=middle;resizable=0;points=[];labelBackgroundColor=none;rounded=1;fontColor=#143642;" vertex="1" connectable="0" parent="WIyWlLk6GJQsqaUBKTNV-1">
          <mxGeometry x="769.9960303802227" y="329.99892399449163" as="geometry">
            <mxPoint x="-41" y="19" as="offset" />
          </mxGeometry>
        </mxCell>
        <mxCell id="1apUicz2O2C1YQh9-yx--118" value="( 1 : 1 )" style="edgeLabel;html=1;align=center;verticalAlign=middle;resizable=0;points=[];labelBackgroundColor=none;rounded=1;fontColor=#143642;" vertex="1" connectable="0" parent="WIyWlLk6GJQsqaUBKTNV-1">
          <mxGeometry x="619.9960303802227" y="274.99892399449163" as="geometry">
            <mxPoint x="-41" y="19" as="offset" />
          </mxGeometry>
        </mxCell>
      </root>
    </mxGraphModel>
  </diagram>
  <diagram id="VLobNW9W-pYDQlOaUsje" name="MDR">
    <mxGraphModel dx="2223" dy="579" grid="1" gridSize="10" guides="0" tooltips="1" connect="1" arrows="1" fold="1" page="1" pageScale="1" pageWidth="827" pageHeight="1169" math="0" shadow="0" adaptiveColors="none">
      <root>
        <mxCell id="0" />
        <mxCell id="1" parent="0" />
        <mxCell id="ER8O6Z0NhaO2pMGubu67-3" value="" style="shape=partialRectangle;html=1;whiteSpace=wrap;connectable=0;fillColor=#eeeeee;top=0;left=0;bottom=0;right=0;overflow=hidden;strokeColor=#36393d;fontSize=16;rounded=1;" vertex="1" parent="1">
          <mxGeometry x="430" y="211" width="40" height="30" as="geometry">
            <mxRectangle width="40" height="30" as="alternateBounds" />
          </mxGeometry>
        </mxCell>
        <mxCell id="wRIibKvGKVFQk24zEN50-1" value="Clinete" style="swimlane;fontStyle=0;childLayout=stackLayout;horizontal=1;startSize=26;fillColor=#eeeeee;horizontalStack=0;resizeParent=1;resizeParentMax=0;resizeLast=0;collapsible=1;marginBottom=0;html=1;strokeColor=#36393d;rounded=1;" vertex="1" parent="1">
          <mxGeometry x="-230" y="70" width="140" height="156" as="geometry" />
        </mxCell>
        <mxCell id="wRIibKvGKVFQk24zEN50-2" value="&lt;b&gt;&lt;u&gt;cpf&lt;/u&gt;&lt;/b&gt;" style="text;strokeColor=#36393d;fillColor=#eeeeee;align=left;verticalAlign=top;spacingLeft=4;spacingRight=4;overflow=hidden;rotatable=0;points=[[0,0.5],[1,0.5]];portConstraint=eastwest;whiteSpace=wrap;html=1;rounded=1;" vertex="1" parent="wRIibKvGKVFQk24zEN50-1">
          <mxGeometry y="26" width="140" height="26" as="geometry" />
        </mxCell>
        <mxCell id="wRIibKvGKVFQk24zEN50-4" value="telefone" style="text;strokeColor=#36393d;fillColor=#eeeeee;align=left;verticalAlign=top;spacingLeft=4;spacingRight=4;overflow=hidden;rotatable=0;points=[[0,0.5],[1,0.5]];portConstraint=eastwest;whiteSpace=wrap;html=1;rounded=1;" vertex="1" parent="wRIibKvGKVFQk24zEN50-1">
          <mxGeometry y="52" width="140" height="26" as="geometry" />
        </mxCell>
        <mxCell id="wRIibKvGKVFQk24zEN50-5" value="nome" style="text;strokeColor=#36393d;fillColor=#eeeeee;align=left;verticalAlign=top;spacingLeft=4;spacingRight=4;overflow=hidden;rotatable=0;points=[[0,0.5],[1,0.5]];portConstraint=eastwest;whiteSpace=wrap;html=1;fontFamily=Helvetica;fontSize=12;rounded=1;" vertex="1" parent="wRIibKvGKVFQk24zEN50-1">
          <mxGeometry y="78" width="140" height="26" as="geometry" />
        </mxCell>
        <mxCell id="wRIibKvGKVFQk24zEN50-3" value="telefone" style="text;strokeColor=#36393d;fillColor=#eeeeee;align=left;verticalAlign=top;spacingLeft=4;spacingRight=4;overflow=hidden;rotatable=0;points=[[0,0.5],[1,0.5]];portConstraint=eastwest;whiteSpace=wrap;html=1;rounded=1;" vertex="1" parent="wRIibKvGKVFQk24zEN50-1">
          <mxGeometry y="104" width="140" height="26" as="geometry" />
        </mxCell>
        <mxCell id="wRIibKvGKVFQk24zEN50-12" value="endereco&lt;div&gt;&lt;br&gt;&lt;/div&gt;" style="text;strokeColor=#36393d;fillColor=#eeeeee;align=left;verticalAlign=top;spacingLeft=4;spacingRight=4;overflow=hidden;rotatable=0;points=[[0,0.5],[1,0.5]];portConstraint=eastwest;whiteSpace=wrap;html=1;rounded=1;" vertex="1" parent="wRIibKvGKVFQk24zEN50-1">
          <mxGeometry y="130" width="140" height="26" as="geometry" />
        </mxCell>
        <mxCell id="wRIibKvGKVFQk24zEN50-13" value="compra&amp;nbsp;" style="swimlane;fontStyle=0;childLayout=stackLayout;horizontal=1;startSize=26;fillColor=#eeeeee;horizontalStack=0;resizeParent=1;resizeParentMax=0;resizeLast=0;collapsible=1;marginBottom=0;html=1;strokeColor=#36393d;rounded=1;" vertex="1" parent="1">
          <mxGeometry x="-230" y="400" width="140" height="130" as="geometry" />
        </mxCell>
        <mxCell id="wRIibKvGKVFQk24zEN50-14" value="&lt;b&gt;&lt;u&gt;id compra (pk)&lt;/u&gt;&lt;/b&gt;" style="text;strokeColor=#36393d;fillColor=#eeeeee;align=left;verticalAlign=top;spacingLeft=4;spacingRight=4;overflow=hidden;rotatable=0;points=[[0,0.5],[1,0.5]];portConstraint=eastwest;whiteSpace=wrap;html=1;rounded=1;" vertex="1" parent="wRIibKvGKVFQk24zEN50-13">
          <mxGeometry y="26" width="140" height="26" as="geometry" />
        </mxCell>
        <mxCell id="wRIibKvGKVFQk24zEN50-42" value="&lt;b&gt;&lt;u&gt;cpf (fk)&lt;/u&gt;&lt;/b&gt;" style="text;strokeColor=#36393d;fillColor=#eeeeee;align=left;verticalAlign=top;spacingLeft=4;spacingRight=4;overflow=hidden;rotatable=0;points=[[0,0.5],[1,0.5]];portConstraint=eastwest;whiteSpace=wrap;html=1;rounded=1;" vertex="1" parent="wRIibKvGKVFQk24zEN50-13">
          <mxGeometry y="52" width="140" height="26" as="geometry" />
        </mxCell>
        <mxCell id="wRIibKvGKVFQk24zEN50-15" value="data" style="text;strokeColor=#36393d;fillColor=#eeeeee;align=left;verticalAlign=top;spacingLeft=4;spacingRight=4;overflow=hidden;rotatable=0;points=[[0,0.5],[1,0.5]];portConstraint=eastwest;whiteSpace=wrap;html=1;rounded=1;" vertex="1" parent="wRIibKvGKVFQk24zEN50-13">
          <mxGeometry y="78" width="140" height="26" as="geometry" />
        </mxCell>
        <mxCell id="wRIibKvGKVFQk24zEN50-16" value="valor total" style="text;strokeColor=#36393d;fillColor=#eeeeee;align=left;verticalAlign=top;spacingLeft=4;spacingRight=4;overflow=hidden;rotatable=0;points=[[0,0.5],[1,0.5]];portConstraint=eastwest;whiteSpace=wrap;html=1;fontFamily=Helvetica;fontSize=12;rounded=1;" vertex="1" parent="wRIibKvGKVFQk24zEN50-13">
          <mxGeometry y="104" width="140" height="26" as="geometry" />
        </mxCell>
        <mxCell id="wRIibKvGKVFQk24zEN50-19" value="item compra" style="swimlane;fontStyle=0;childLayout=stackLayout;horizontal=1;startSize=26;fillColor=#eeeeee;horizontalStack=0;resizeParent=1;resizeParentMax=0;resizeLast=0;collapsible=1;marginBottom=0;html=1;strokeColor=#36393d;rounded=1;" vertex="1" parent="1">
          <mxGeometry x="-220" y="680" width="140" height="104" as="geometry" />
        </mxCell>
        <mxCell id="wRIibKvGKVFQk24zEN50-20" value="&lt;b&gt;&lt;u&gt;id-compra (fk )&lt;/u&gt;&lt;/b&gt;" style="text;strokeColor=#36393d;fillColor=#eeeeee;align=left;verticalAlign=top;spacingLeft=4;spacingRight=4;overflow=hidden;rotatable=0;points=[[0,0.5],[1,0.5]];portConstraint=eastwest;whiteSpace=wrap;html=1;rounded=1;" vertex="1" parent="wRIibKvGKVFQk24zEN50-19">
          <mxGeometry y="26" width="140" height="26" as="geometry" />
        </mxCell>
        <mxCell id="wRIibKvGKVFQk24zEN50-21" value="&lt;b&gt;&lt;u&gt;id-produto (fk)&lt;/u&gt;&lt;/b&gt;&lt;div&gt;&lt;br&gt;&lt;/div&gt;" style="text;strokeColor=#36393d;fillColor=#eeeeee;align=left;verticalAlign=top;spacingLeft=4;spacingRight=4;overflow=hidden;rotatable=0;points=[[0,0.5],[1,0.5]];portConstraint=eastwest;whiteSpace=wrap;html=1;rounded=1;" vertex="1" parent="wRIibKvGKVFQk24zEN50-19">
          <mxGeometry y="52" width="140" height="26" as="geometry" />
        </mxCell>
        <mxCell id="wRIibKvGKVFQk24zEN50-22" value="item" style="text;strokeColor=#36393d;fillColor=#eeeeee;align=left;verticalAlign=top;spacingLeft=4;spacingRight=4;overflow=hidden;rotatable=0;points=[[0,0.5],[1,0.5]];portConstraint=eastwest;whiteSpace=wrap;html=1;fontFamily=Helvetica;fontSize=12;rounded=1;" vertex="1" parent="wRIibKvGKVFQk24zEN50-19">
          <mxGeometry y="78" width="140" height="26" as="geometry" />
        </mxCell>
        <mxCell id="wRIibKvGKVFQk24zEN50-26" value="conta" style="swimlane;fontStyle=0;childLayout=stackLayout;horizontal=1;startSize=26;fillColor=#eeeeee;horizontalStack=0;resizeParent=1;resizeParentMax=0;resizeLast=0;collapsible=1;marginBottom=0;html=1;strokeColor=#36393d;rounded=1;" vertex="1" parent="1">
          <mxGeometry x="80" y="120" width="140" height="78" as="geometry" />
        </mxCell>
        <mxCell id="wRIibKvGKVFQk24zEN50-27" value="&lt;b&gt;&lt;u&gt;id conta(pk)&lt;/u&gt;&lt;/b&gt;" style="text;strokeColor=#36393d;fillColor=#eeeeee;align=left;verticalAlign=top;spacingLeft=4;spacingRight=4;overflow=hidden;rotatable=0;points=[[0,0.5],[1,0.5]];portConstraint=eastwest;whiteSpace=wrap;html=1;rounded=1;" vertex="1" parent="wRIibKvGKVFQk24zEN50-26">
          <mxGeometry y="26" width="140" height="26" as="geometry" />
        </mxCell>
        <mxCell id="wRIibKvGKVFQk24zEN50-41" value="&lt;b&gt;&lt;u&gt;cpf cliente (fk)&lt;/u&gt;&lt;/b&gt;" style="text;strokeColor=#36393d;fillColor=#eeeeee;align=left;verticalAlign=top;spacingLeft=4;spacingRight=4;overflow=hidden;rotatable=0;points=[[0,0.5],[1,0.5]];portConstraint=eastwest;whiteSpace=wrap;html=1;rounded=1;" vertex="1" parent="wRIibKvGKVFQk24zEN50-26">
          <mxGeometry y="52" width="140" height="26" as="geometry" />
        </mxCell>
        <mxCell id="wRIibKvGKVFQk24zEN50-30" value="corrente" style="swimlane;fontStyle=0;childLayout=stackLayout;horizontal=1;startSize=26;fillColor=#eeeeee;horizontalStack=0;resizeParent=1;resizeParentMax=0;resizeLast=0;collapsible=1;marginBottom=0;html=1;strokeColor=#36393d;rounded=1;" vertex="1" parent="1">
          <mxGeometry x="400" y="330" width="140" height="104" as="geometry" />
        </mxCell>
        <mxCell id="wRIibKvGKVFQk24zEN50-31" value="&lt;b&gt;&lt;u&gt;id-conta-corrente (pk)&lt;/u&gt;&lt;/b&gt;" style="text;strokeColor=#36393d;fillColor=#eeeeee;align=left;verticalAlign=top;spacingLeft=4;spacingRight=4;overflow=hidden;rotatable=0;points=[[0,0.5],[1,0.5]];portConstraint=eastwest;whiteSpace=wrap;html=1;rounded=1;" vertex="1" parent="wRIibKvGKVFQk24zEN50-30">
          <mxGeometry y="26" width="140" height="26" as="geometry" />
        </mxCell>
        <mxCell id="wRIibKvGKVFQk24zEN50-40" value="&lt;b&gt;&lt;u&gt;id-conta (fk)&lt;/u&gt;&lt;/b&gt;" style="text;strokeColor=#36393d;fillColor=#eeeeee;align=left;verticalAlign=top;spacingLeft=4;spacingRight=4;overflow=hidden;rotatable=0;points=[[0,0.5],[1,0.5]];portConstraint=eastwest;whiteSpace=wrap;html=1;rounded=1;" vertex="1" parent="wRIibKvGKVFQk24zEN50-30">
          <mxGeometry y="52" width="140" height="26" as="geometry" />
        </mxCell>
        <mxCell id="wRIibKvGKVFQk24zEN50-32" value="data abertura" style="text;strokeColor=#36393d;fillColor=#eeeeee;align=left;verticalAlign=top;spacingLeft=4;spacingRight=4;overflow=hidden;rotatable=0;points=[[0,0.5],[1,0.5]];portConstraint=eastwest;whiteSpace=wrap;html=1;rounded=1;" vertex="1" parent="wRIibKvGKVFQk24zEN50-30">
          <mxGeometry y="78" width="140" height="26" as="geometry" />
        </mxCell>
        <mxCell id="wRIibKvGKVFQk24zEN50-34" value="poupanca" style="swimlane;fontStyle=0;childLayout=stackLayout;horizontal=1;startSize=26;fillColor=#eeeeee;horizontalStack=0;resizeParent=1;resizeParentMax=0;resizeLast=0;collapsible=1;marginBottom=0;html=1;strokeColor=#36393d;rounded=1;" vertex="1" parent="1">
          <mxGeometry x="390" y="150" width="140" height="130" as="geometry" />
        </mxCell>
        <mxCell id="wRIibKvGKVFQk24zEN50-35" value="&lt;b&gt;&lt;u&gt;id-poupanca&amp;nbsp;(pk)&lt;/u&gt;&lt;/b&gt;&lt;div&gt;&lt;b&gt;&lt;u&gt;&lt;br&gt;&lt;/u&gt;&lt;/b&gt;&lt;/div&gt;" style="text;strokeColor=#36393d;fillColor=#eeeeee;align=left;verticalAlign=top;spacingLeft=4;spacingRight=4;overflow=hidden;rotatable=0;points=[[0,0.5],[1,0.5]];portConstraint=eastwest;whiteSpace=wrap;html=1;rounded=1;" vertex="1" parent="wRIibKvGKVFQk24zEN50-34">
          <mxGeometry y="26" width="140" height="26" as="geometry" />
        </mxCell>
        <mxCell id="wRIibKvGKVFQk24zEN50-39" value="&lt;b&gt;&lt;u&gt;id-conta (fk)&lt;/u&gt;&lt;/b&gt;&lt;div&gt;&lt;b&gt;&lt;u&gt;&lt;br&gt;&lt;/u&gt;&lt;/b&gt;&lt;/div&gt;" style="text;strokeColor=#36393d;fillColor=#eeeeee;align=left;verticalAlign=top;spacingLeft=4;spacingRight=4;overflow=hidden;rotatable=0;points=[[0,0.5],[1,0.5]];portConstraint=eastwest;whiteSpace=wrap;html=1;rounded=1;" vertex="1" parent="wRIibKvGKVFQk24zEN50-34">
          <mxGeometry y="52" width="140" height="26" as="geometry" />
        </mxCell>
        <mxCell id="wRIibKvGKVFQk24zEN50-36" value="data" style="text;strokeColor=#36393d;fillColor=#eeeeee;align=left;verticalAlign=top;spacingLeft=4;spacingRight=4;overflow=hidden;rotatable=0;points=[[0,0.5],[1,0.5]];portConstraint=eastwest;whiteSpace=wrap;html=1;rounded=1;" vertex="1" parent="wRIibKvGKVFQk24zEN50-34">
          <mxGeometry y="78" width="140" height="26" as="geometry" />
        </mxCell>
        <mxCell id="wRIibKvGKVFQk24zEN50-37" value="valor total" style="text;strokeColor=#36393d;fillColor=#eeeeee;align=left;verticalAlign=top;spacingLeft=4;spacingRight=4;overflow=hidden;rotatable=0;points=[[0,0.5],[1,0.5]];portConstraint=eastwest;whiteSpace=wrap;html=1;fontFamily=Helvetica;fontSize=12;rounded=1;" vertex="1" parent="wRIibKvGKVFQk24zEN50-34">
          <mxGeometry y="104" width="140" height="26" as="geometry" />
        </mxCell>
        <mxCell id="5-pMZRTpMpQeYrm0W1hm-1" value="" style="endArrow=none;html=1;rounded=1;entryX=0.496;entryY=0.923;entryDx=0;entryDy=0;exitX=0.5;exitY=0;exitDx=0;exitDy=0;labelBackgroundColor=none;fontColor=default;strokeColor=#36393d;entryPerimeter=0;fillColor=#eeeeee;" edge="1" parent="1" source="wRIibKvGKVFQk24zEN50-13" target="wRIibKvGKVFQk24zEN50-12">
          <mxGeometry width="50" height="50" relative="1" as="geometry">
            <mxPoint x="-160.48000000000002" y="321" as="sourcePoint" />
            <mxPoint x="-160.48000000000002" y="241" as="targetPoint" />
          </mxGeometry>
        </mxCell>
        <mxCell id="5-pMZRTpMpQeYrm0W1hm-2" value="" style="endArrow=none;html=1;rounded=1;entryX=1;entryY=0.077;entryDx=0;entryDy=0;exitX=-0.022;exitY=0.198;exitDx=0;exitDy=0;labelBackgroundColor=none;fontColor=default;strokeColor=#36393d;entryPerimeter=0;exitPerimeter=0;fillColor=#eeeeee;" edge="1" parent="1" source="wRIibKvGKVFQk24zEN50-27" target="wRIibKvGKVFQk24zEN50-5">
          <mxGeometry width="50" height="50" relative="1" as="geometry">
            <mxPoint x="31" y="386" as="sourcePoint" />
            <mxPoint x="30" y="200" as="targetPoint" />
          </mxGeometry>
        </mxCell>
        <mxCell id="5-pMZRTpMpQeYrm0W1hm-3" value="" style="endArrow=none;html=1;rounded=1;entryX=0.602;entryY=1.06;entryDx=0;entryDy=0;exitX=0.429;exitY=0;exitDx=0;exitDy=0;labelBackgroundColor=none;fontColor=default;strokeColor=#36393d;entryPerimeter=0;exitPerimeter=0;fillColor=#eeeeee;" edge="1" parent="1" source="wRIibKvGKVFQk24zEN50-30" target="wRIibKvGKVFQk24zEN50-41">
          <mxGeometry width="50" height="50" relative="1" as="geometry">
            <mxPoint x="-140" y="430" as="sourcePoint" />
            <mxPoint x="-141" y="244" as="targetPoint" />
          </mxGeometry>
        </mxCell>
        <mxCell id="5-pMZRTpMpQeYrm0W1hm-4" value="" style="endArrow=none;html=1;rounded=1;entryX=0;entryY=0.5;entryDx=0;entryDy=0;exitX=1;exitY=0.5;exitDx=0;exitDy=0;labelBackgroundColor=none;fontColor=default;strokeColor=#36393d;fillColor=#eeeeee;" edge="1" parent="1" source="wRIibKvGKVFQk24zEN50-41" target="wRIibKvGKVFQk24zEN50-35">
          <mxGeometry width="50" height="50" relative="1" as="geometry">
            <mxPoint x="210" y="164.4999999999999" as="sourcePoint" />
            <mxPoint x="420" y="170.5" as="targetPoint" />
          </mxGeometry>
        </mxCell>
        <mxCell id="5-pMZRTpMpQeYrm0W1hm-8" value="" style="endArrow=none;html=1;rounded=1;exitX=0.5;exitY=0;exitDx=0;exitDy=0;labelBackgroundColor=none;fontColor=default;strokeColor=#36393d;entryX=0.573;entryY=1.059;entryDx=0;entryDy=0;entryPerimeter=0;fillColor=#eeeeee;" edge="1" parent="1" source="wRIibKvGKVFQk24zEN50-19" target="wRIibKvGKVFQk24zEN50-16">
          <mxGeometry width="50" height="50" relative="1" as="geometry">
            <mxPoint x="-159.82999999999998" y="726" as="sourcePoint" />
            <mxPoint x="-170" y="540" as="targetPoint" />
          </mxGeometry>
        </mxCell>
        <mxCell id="5-pMZRTpMpQeYrm0W1hm-11" value="produto" style="swimlane;fontStyle=0;childLayout=stackLayout;horizontal=1;startSize=26;fillColor=#eeeeee;horizontalStack=0;resizeParent=1;resizeParentMax=0;resizeLast=0;collapsible=1;marginBottom=0;html=1;strokeColor=#36393d;rounded=1;" vertex="1" parent="1">
          <mxGeometry x="50" y="387" width="140" height="156" as="geometry" />
        </mxCell>
        <mxCell id="5-pMZRTpMpQeYrm0W1hm-12" value="&lt;b&gt;&lt;u&gt;id-produto (pk)&lt;/u&gt;&lt;/b&gt;" style="text;strokeColor=#36393d;fillColor=#eeeeee;align=left;verticalAlign=top;spacingLeft=4;spacingRight=4;overflow=hidden;rotatable=0;points=[[0,0.5],[1,0.5]];portConstraint=eastwest;whiteSpace=wrap;html=1;rounded=1;" vertex="1" parent="5-pMZRTpMpQeYrm0W1hm-11">
          <mxGeometry y="26" width="140" height="26" as="geometry" />
        </mxCell>
        <mxCell id="5-pMZRTpMpQeYrm0W1hm-13" value="&lt;b&gt;&lt;u&gt;id-compra (fk)&lt;/u&gt;&lt;/b&gt;" style="text;strokeColor=#36393d;fillColor=#eeeeee;align=left;verticalAlign=top;spacingLeft=4;spacingRight=4;overflow=hidden;rotatable=0;points=[[0,0.5],[1,0.5]];portConstraint=eastwest;whiteSpace=wrap;html=1;rounded=1;" vertex="1" parent="5-pMZRTpMpQeYrm0W1hm-11">
          <mxGeometry y="52" width="140" height="26" as="geometry" />
        </mxCell>
        <mxCell id="5-pMZRTpMpQeYrm0W1hm-14" value="preco" style="text;strokeColor=#36393d;fillColor=#eeeeee;align=left;verticalAlign=top;spacingLeft=4;spacingRight=4;overflow=hidden;rotatable=0;points=[[0,0.5],[1,0.5]];portConstraint=eastwest;whiteSpace=wrap;html=1;rounded=1;" vertex="1" parent="5-pMZRTpMpQeYrm0W1hm-11">
          <mxGeometry y="78" width="140" height="26" as="geometry" />
        </mxCell>
        <mxCell id="5-pMZRTpMpQeYrm0W1hm-16" value="nome" style="text;strokeColor=#36393d;fillColor=#eeeeee;align=left;verticalAlign=top;spacingLeft=4;spacingRight=4;overflow=hidden;rotatable=0;points=[[0,0.5],[1,0.5]];portConstraint=eastwest;whiteSpace=wrap;html=1;rounded=1;" vertex="1" parent="5-pMZRTpMpQeYrm0W1hm-11">
          <mxGeometry y="104" width="140" height="26" as="geometry" />
        </mxCell>
        <mxCell id="5-pMZRTpMpQeYrm0W1hm-15" value="qtd estoque" style="text;strokeColor=#36393d;fillColor=#eeeeee;align=left;verticalAlign=top;spacingLeft=4;spacingRight=4;overflow=hidden;rotatable=0;points=[[0,0.5],[1,0.5]];portConstraint=eastwest;whiteSpace=wrap;html=1;rounded=1;" vertex="1" parent="5-pMZRTpMpQeYrm0W1hm-11">
          <mxGeometry y="130" width="140" height="26" as="geometry" />
        </mxCell>
        <mxCell id="5-pMZRTpMpQeYrm0W1hm-18" value="parceiro" style="swimlane;fontStyle=0;childLayout=stackLayout;horizontal=1;startSize=26;fillColor=#eeeeee;horizontalStack=0;resizeParent=1;resizeParentMax=0;resizeLast=0;collapsible=1;marginBottom=0;html=1;strokeColor=#36393d;swimlaneFillColor=default;rounded=1;" vertex="1" parent="1">
          <mxGeometry x="350" y="498" width="140" height="182" as="geometry" />
        </mxCell>
        <mxCell id="5-pMZRTpMpQeYrm0W1hm-19" value="&lt;b&gt;&lt;u&gt;cnpj (pk)&lt;/u&gt;&lt;/b&gt;" style="text;strokeColor=#36393d;fillColor=#eeeeee;align=left;verticalAlign=top;spacingLeft=4;spacingRight=4;overflow=hidden;rotatable=0;points=[[0,0.5],[1,0.5]];portConstraint=eastwest;whiteSpace=wrap;html=1;rounded=1;" vertex="1" parent="5-pMZRTpMpQeYrm0W1hm-18">
          <mxGeometry y="26" width="140" height="26" as="geometry" />
        </mxCell>
        <mxCell id="5-pMZRTpMpQeYrm0W1hm-20" value="&lt;b&gt;&lt;u&gt;id-produto (fk)&lt;/u&gt;&lt;/b&gt;" style="text;strokeColor=#36393d;fillColor=#eeeeee;align=left;verticalAlign=top;spacingLeft=4;spacingRight=4;overflow=hidden;rotatable=0;points=[[0,0.5],[1,0.5]];portConstraint=eastwest;whiteSpace=wrap;html=1;rounded=1;" vertex="1" parent="5-pMZRTpMpQeYrm0W1hm-18">
          <mxGeometry y="52" width="140" height="26" as="geometry" />
        </mxCell>
        <mxCell id="5-pMZRTpMpQeYrm0W1hm-21" value="nome fantasia" style="text;strokeColor=#36393d;fillColor=#eeeeee;align=left;verticalAlign=top;spacingLeft=4;spacingRight=4;overflow=hidden;rotatable=0;points=[[0,0.5],[1,0.5]];portConstraint=eastwest;whiteSpace=wrap;html=1;rounded=1;" vertex="1" parent="5-pMZRTpMpQeYrm0W1hm-18">
          <mxGeometry y="78" width="140" height="26" as="geometry" />
        </mxCell>
        <mxCell id="5-pMZRTpMpQeYrm0W1hm-22" value="telefone" style="text;strokeColor=#36393d;fillColor=#eeeeee;align=left;verticalAlign=top;spacingLeft=4;spacingRight=4;overflow=hidden;rotatable=0;points=[[0,0.5],[1,0.5]];portConstraint=eastwest;whiteSpace=wrap;html=1;rounded=1;" vertex="1" parent="5-pMZRTpMpQeYrm0W1hm-18">
          <mxGeometry y="104" width="140" height="26" as="geometry" />
        </mxCell>
        <mxCell id="5-pMZRTpMpQeYrm0W1hm-23" value="nome responsavel" style="text;strokeColor=#36393d;fillColor=#eeeeee;align=left;verticalAlign=top;spacingLeft=4;spacingRight=4;overflow=hidden;rotatable=0;points=[[0,0.5],[1,0.5]];portConstraint=eastwest;whiteSpace=wrap;html=1;rounded=1;" vertex="1" parent="5-pMZRTpMpQeYrm0W1hm-18">
          <mxGeometry y="130" width="140" height="26" as="geometry" />
        </mxCell>
        <mxCell id="5-pMZRTpMpQeYrm0W1hm-25" value="endereco" style="text;strokeColor=#36393d;fillColor=#eeeeee;align=left;verticalAlign=top;spacingLeft=4;spacingRight=4;overflow=hidden;rotatable=0;points=[[0,0.5],[1,0.5]];portConstraint=eastwest;whiteSpace=wrap;html=1;rounded=1;" vertex="1" parent="5-pMZRTpMpQeYrm0W1hm-18">
          <mxGeometry y="156" width="140" height="26" as="geometry" />
        </mxCell>
        <mxCell id="5-pMZRTpMpQeYrm0W1hm-24" value="" style="endArrow=none;html=1;rounded=1;exitX=1;exitY=0.5;exitDx=0;exitDy=0;labelBackgroundColor=none;fontColor=default;strokeColor=#36393d;entryX=0;entryY=0.5;entryDx=0;entryDy=0;fillColor=#eeeeee;" edge="1" parent="1" source="5-pMZRTpMpQeYrm0W1hm-14" target="5-pMZRTpMpQeYrm0W1hm-20">
          <mxGeometry width="50" height="50" relative="1" as="geometry">
            <mxPoint x="130" y="460" as="sourcePoint" />
            <mxPoint x="350" y="676" as="targetPoint" />
          </mxGeometry>
        </mxCell>
        <mxCell id="5-pMZRTpMpQeYrm0W1hm-26" value="" style="endArrow=none;html=1;rounded=1;labelBackgroundColor=none;fontColor=default;strokeColor=#36393d;entryX=0;entryY=0.077;entryDx=0;entryDy=0;entryPerimeter=0;exitX=1;exitY=0.5;exitDx=0;exitDy=0;fillColor=#eeeeee;" edge="1" parent="1" source="wRIibKvGKVFQk24zEN50-42" target="5-pMZRTpMpQeYrm0W1hm-14">
          <mxGeometry width="50" height="50" relative="1" as="geometry">
            <mxPoint x="-70" y="720" as="sourcePoint" />
            <mxPoint x="96.44000000000013" y="755.6559999999998" as="targetPoint" />
          </mxGeometry>
        </mxCell>
        <mxCell id="UgBSfoclHBfiDrKcr3rs-1" value="&lt;span style=&quot;color: rgb(20, 54, 66); font-family: Helvetica; font-size: 11px; font-style: normal; font-variant-ligatures: normal; font-variant-caps: normal; font-weight: 400; letter-spacing: normal; orphans: 2; text-align: center; text-indent: 0px; text-transform: none; widows: 2; word-spacing: 0px; -webkit-text-stroke-width: 0px; white-space: nowrap; background-color: rgb(251, 251, 251); text-decoration-thickness: initial; text-decoration-style: initial; text-decoration-color: initial; display: inline !important; float: none;&quot;&gt;( 1 : N )&lt;/span&gt;" style="text;whiteSpace=wrap;html=1;fontFamily=Helvetica;fontSize=12;rounded=1;" vertex="1" parent="1">
          <mxGeometry x="-90" y="150" width="70" height="40" as="geometry" />
        </mxCell>
        <mxCell id="UgBSfoclHBfiDrKcr3rs-2" value="&lt;span style=&quot;color: rgb(20, 54, 66); font-family: Helvetica; font-size: 11px; font-style: normal; font-variant-ligatures: normal; font-variant-caps: normal; font-weight: 400; letter-spacing: normal; orphans: 2; text-align: center; text-indent: 0px; text-transform: none; widows: 2; word-spacing: 0px; -webkit-text-stroke-width: 0px; white-space: nowrap; background-color: rgb(251, 251, 251); text-decoration-thickness: initial; text-decoration-style: initial; text-decoration-color: initial; float: none; display: inline !important;&quot;&gt;( 1 : 1)&lt;/span&gt;" style="text;whiteSpace=wrap;html=1;fontFamily=Helvetica;fontSize=12;rounded=1;" vertex="1" parent="1">
          <mxGeometry x="40" y="150" width="70" height="40" as="geometry" />
        </mxCell>
        <mxCell id="UgBSfoclHBfiDrKcr3rs-4" value="&lt;span style=&quot;color: rgb(20, 54, 66); font-family: Helvetica; font-size: 11px; font-style: normal; font-variant-ligatures: normal; font-variant-caps: normal; font-weight: 400; letter-spacing: normal; orphans: 2; text-align: center; text-indent: 0px; text-transform: none; widows: 2; word-spacing: 0px; -webkit-text-stroke-width: 0px; white-space: nowrap; background-color: rgb(251, 251, 251); text-decoration-thickness: initial; text-decoration-style: initial; text-decoration-color: initial; float: none; display: inline !important;&quot;&gt;( 1 : 1)&lt;/span&gt;" style="text;whiteSpace=wrap;html=1;fontFamily=Helvetica;fontSize=12;rounded=1;" vertex="1" parent="1">
          <mxGeometry x="290" y="149" width="50" height="20" as="geometry" />
        </mxCell>
        <mxCell id="UgBSfoclHBfiDrKcr3rs-7" value="&lt;span style=&quot;color: rgb(20, 54, 66); font-family: Helvetica; font-size: 11px; font-style: normal; font-variant-ligatures: normal; font-variant-caps: normal; font-weight: 400; letter-spacing: normal; orphans: 2; text-align: center; text-indent: 0px; text-transform: none; widows: 2; word-spacing: 0px; -webkit-text-stroke-width: 0px; white-space: nowrap; background-color: rgb(251, 251, 251); text-decoration-thickness: initial; text-decoration-style: initial; text-decoration-color: initial; float: none; display: inline !important;&quot;&gt;( 1 : 1)&lt;/span&gt;" style="text;whiteSpace=wrap;html=1;fontFamily=Helvetica;fontSize=12;rounded=1;" vertex="1" parent="1">
          <mxGeometry x="270" y="270" width="70" height="40" as="geometry" />
        </mxCell>
        <mxCell id="UgBSfoclHBfiDrKcr3rs-10" value="&lt;span style=&quot;color: rgb(20, 54, 66); font-family: Helvetica; font-size: 11px; font-style: normal; font-variant-ligatures: normal; font-variant-caps: normal; font-weight: 400; letter-spacing: normal; orphans: 2; text-align: center; text-indent: 0px; text-transform: none; widows: 2; word-spacing: 0px; -webkit-text-stroke-width: 0px; white-space: nowrap; background-color: rgb(251, 251, 251); text-decoration-thickness: initial; text-decoration-style: initial; text-decoration-color: initial; float: none; display: inline !important;&quot;&gt;( N : M )&lt;/span&gt;" style="text;whiteSpace=wrap;html=1;fontFamily=Helvetica;fontSize=12;rounded=1;" vertex="1" parent="1">
          <mxGeometry x="-200" y="590" width="70" height="40" as="geometry" />
        </mxCell>
        <mxCell id="UgBSfoclHBfiDrKcr3rs-14" value="&lt;span style=&quot;color: rgb(20, 54, 66); font-family: Helvetica; font-size: 11px; font-style: normal; font-variant-ligatures: normal; font-variant-caps: normal; font-weight: 400; letter-spacing: normal; orphans: 2; text-align: center; text-indent: 0px; text-transform: none; widows: 2; word-spacing: 0px; -webkit-text-stroke-width: 0px; white-space: nowrap; background-color: rgb(251, 251, 251); text-decoration-thickness: initial; text-decoration-style: initial; text-decoration-color: initial; display: inline !important; float: none;&quot;&gt;( 1 : N )&lt;/span&gt;" style="text;whiteSpace=wrap;html=1;fontFamily=Helvetica;fontSize=12;rounded=1;" vertex="1" parent="1">
          <mxGeometry x="-43" y="434" width="50" height="28" as="geometry" />
        </mxCell>
      </root>
    </mxGraphModel>
  </diagram>
</mxfile>
